<mxfile host="Electron" agent="Mozilla/5.0 (Windows NT 10.0; Win64; x64) AppleWebKit/537.36 (KHTML, like Gecko) draw.io/24.7.8 Chrome/128.0.6613.36 Electron/32.0.1 Safari/537.36" version="24.7.8">
  <diagram name="Page-1" id="JyRaOSrhqNKSdqRTGiBe">
    <mxGraphModel dx="1615" dy="955" grid="1" gridSize="10" guides="1" tooltips="1" connect="1" arrows="1" fold="1" page="1" pageScale="1" pageWidth="827" pageHeight="1169" math="0" shadow="0">
      <root>
        <mxCell id="0" />
        <mxCell id="1" parent="0" />
        <mxCell id="nN6iCXieqgK8tr1pqwxt-1" value="Le joueur sélectionne une carte" style="rounded=0;whiteSpace=wrap;html=1;" vertex="1" parent="1">
          <mxGeometry x="40" y="120" width="200" height="40" as="geometry" />
        </mxCell>
        <mxCell id="nN6iCXieqgK8tr1pqwxt-2" value="Envoi de l&#39;information au contrôleur" style="rounded=0;whiteSpace=wrap;html=1;" vertex="1" parent="1">
          <mxGeometry x="40" y="200" width="200" height="40" as="geometry" />
        </mxCell>
        <mxCell id="nN6iCXieqgK8tr1pqwxt-3" value="Le contrôleur transmet la demande de validation au modèle" style="rounded=0;whiteSpace=wrap;html=1;" vertex="1" parent="1">
          <mxGeometry x="40" y="280" width="200" height="40" as="geometry" />
        </mxCell>
        <mxCell id="nN6iCXieqgK8tr1pqwxt-4" value="Le modèle vérifie si la carte est jouable" style="rounded=0;whiteSpace=wrap;html=1;" vertex="1" parent="1">
          <mxGeometry x="40" y="360" width="200" height="40" as="geometry" />
        </mxCell>
        <mxCell id="nN6iCXieqgK8tr1pqwxt-21" style="edgeStyle=orthogonalEdgeStyle;rounded=0;orthogonalLoop=1;jettySize=auto;html=1;entryX=0.5;entryY=0;entryDx=0;entryDy=0;" edge="1" parent="1" source="nN6iCXieqgK8tr1pqwxt-7" target="nN6iCXieqgK8tr1pqwxt-9">
          <mxGeometry relative="1" as="geometry" />
        </mxCell>
        <mxCell id="nN6iCXieqgK8tr1pqwxt-23" value="Non" style="edgeLabel;html=1;align=center;verticalAlign=middle;resizable=0;points=[];" vertex="1" connectable="0" parent="nN6iCXieqgK8tr1pqwxt-21">
          <mxGeometry x="-0.5468" y="-2" relative="1" as="geometry">
            <mxPoint as="offset" />
          </mxGeometry>
        </mxCell>
        <mxCell id="nN6iCXieqgK8tr1pqwxt-7" value="Carte valide ?&amp;nbsp;" style="shape=hexagon;perimeter=hexagonPerimeter2;whiteSpace=wrap;html=1;fixedSize=1;" vertex="1" parent="1">
          <mxGeometry x="40" y="440" width="200" height="40" as="geometry" />
        </mxCell>
        <mxCell id="nN6iCXieqgK8tr1pqwxt-8" value="Mise à jour de l&lt;span class=&quot;hljs-string&quot;&gt;&#39;état du jeu&lt;/span&gt;" style="rounded=0;whiteSpace=wrap;html=1;" vertex="1" parent="1">
          <mxGeometry x="40" y="520" width="200" height="40" as="geometry" />
        </mxCell>
        <mxCell id="nN6iCXieqgK8tr1pqwxt-22" style="edgeStyle=orthogonalEdgeStyle;rounded=0;orthogonalLoop=1;jettySize=auto;html=1;entryX=1;entryY=0.5;entryDx=0;entryDy=0;" edge="1" parent="1" source="nN6iCXieqgK8tr1pqwxt-9" target="nN6iCXieqgK8tr1pqwxt-11">
          <mxGeometry relative="1" as="geometry">
            <Array as="points">
              <mxPoint x="380" y="700" />
            </Array>
          </mxGeometry>
        </mxCell>
        <mxCell id="nN6iCXieqgK8tr1pqwxt-9" value="Informer la GUI que la carte est invalide" style="rounded=0;whiteSpace=wrap;html=1;" vertex="1" parent="1">
          <mxGeometry x="280" y="520" width="200" height="40" as="geometry" />
        </mxCell>
        <mxCell id="nN6iCXieqgK8tr1pqwxt-10" value="&lt;span class=&quot;hljs-string&quot;&gt;Mise à jour de l&#39;&lt;/span&gt;&lt;span class=&quot;hljs-keyword&quot;&gt;interface&lt;/span&gt;" style="rounded=0;whiteSpace=wrap;html=1;" vertex="1" parent="1">
          <mxGeometry x="40" y="600" width="200" height="40" as="geometry" />
        </mxCell>
        <mxCell id="nN6iCXieqgK8tr1pqwxt-11" value="Fin" style="rounded=0;whiteSpace=wrap;html=1;" vertex="1" parent="1">
          <mxGeometry x="40" y="680" width="200" height="40" as="geometry" />
        </mxCell>
        <mxCell id="nN6iCXieqgK8tr1pqwxt-12" value="Début" style="rounded=0;whiteSpace=wrap;html=1;" vertex="1" parent="1">
          <mxGeometry x="40" y="40" width="200" height="40" as="geometry" />
        </mxCell>
        <mxCell id="nN6iCXieqgK8tr1pqwxt-13" value="" style="endArrow=classic;html=1;rounded=0;exitX=0.5;exitY=1;exitDx=0;exitDy=0;entryX=0.5;entryY=0;entryDx=0;entryDy=0;" edge="1" parent="1" source="nN6iCXieqgK8tr1pqwxt-3" target="nN6iCXieqgK8tr1pqwxt-4">
          <mxGeometry width="50" height="50" relative="1" as="geometry">
            <mxPoint x="150" y="340" as="sourcePoint" />
            <mxPoint x="210" y="320" as="targetPoint" />
          </mxGeometry>
        </mxCell>
        <mxCell id="nN6iCXieqgK8tr1pqwxt-14" value="" style="endArrow=classic;html=1;rounded=0;exitX=0.5;exitY=1;exitDx=0;exitDy=0;entryX=0.5;entryY=0;entryDx=0;entryDy=0;" edge="1" parent="1">
          <mxGeometry width="50" height="50" relative="1" as="geometry">
            <mxPoint x="139.75" y="240" as="sourcePoint" />
            <mxPoint x="139.75" y="280" as="targetPoint" />
          </mxGeometry>
        </mxCell>
        <mxCell id="nN6iCXieqgK8tr1pqwxt-15" value="" style="endArrow=classic;html=1;rounded=0;exitX=0.5;exitY=1;exitDx=0;exitDy=0;entryX=0.5;entryY=0;entryDx=0;entryDy=0;" edge="1" parent="1">
          <mxGeometry width="50" height="50" relative="1" as="geometry">
            <mxPoint x="139.75" y="160" as="sourcePoint" />
            <mxPoint x="139.75" y="200" as="targetPoint" />
          </mxGeometry>
        </mxCell>
        <mxCell id="nN6iCXieqgK8tr1pqwxt-16" value="" style="endArrow=classic;html=1;rounded=0;exitX=0.5;exitY=1;exitDx=0;exitDy=0;entryX=0.5;entryY=0;entryDx=0;entryDy=0;" edge="1" parent="1">
          <mxGeometry width="50" height="50" relative="1" as="geometry">
            <mxPoint x="139.75" y="80" as="sourcePoint" />
            <mxPoint x="139.75" y="120" as="targetPoint" />
          </mxGeometry>
        </mxCell>
        <mxCell id="nN6iCXieqgK8tr1pqwxt-17" value="" style="endArrow=classic;html=1;rounded=0;exitX=0.5;exitY=1;exitDx=0;exitDy=0;entryX=0.5;entryY=0;entryDx=0;entryDy=0;" edge="1" parent="1">
          <mxGeometry width="50" height="50" relative="1" as="geometry">
            <mxPoint x="139.75" y="400" as="sourcePoint" />
            <mxPoint x="139.75" y="440" as="targetPoint" />
          </mxGeometry>
        </mxCell>
        <mxCell id="nN6iCXieqgK8tr1pqwxt-18" value="" style="endArrow=classic;html=1;rounded=0;exitX=0.5;exitY=1;exitDx=0;exitDy=0;entryX=0.5;entryY=0;entryDx=0;entryDy=0;" edge="1" parent="1">
          <mxGeometry width="50" height="50" relative="1" as="geometry">
            <mxPoint x="139.75" y="480" as="sourcePoint" />
            <mxPoint x="139.75" y="520" as="targetPoint" />
          </mxGeometry>
        </mxCell>
        <mxCell id="nN6iCXieqgK8tr1pqwxt-24" value="Oui" style="edgeLabel;html=1;align=center;verticalAlign=middle;resizable=0;points=[];" vertex="1" connectable="0" parent="nN6iCXieqgK8tr1pqwxt-18">
          <mxGeometry x="-0.21" relative="1" as="geometry">
            <mxPoint as="offset" />
          </mxGeometry>
        </mxCell>
        <mxCell id="nN6iCXieqgK8tr1pqwxt-19" value="" style="endArrow=classic;html=1;rounded=0;exitX=0.5;exitY=1;exitDx=0;exitDy=0;entryX=0.5;entryY=0;entryDx=0;entryDy=0;" edge="1" parent="1">
          <mxGeometry width="50" height="50" relative="1" as="geometry">
            <mxPoint x="139.75" y="560" as="sourcePoint" />
            <mxPoint x="139.75" y="600" as="targetPoint" />
          </mxGeometry>
        </mxCell>
        <mxCell id="nN6iCXieqgK8tr1pqwxt-20" value="" style="endArrow=classic;html=1;rounded=0;exitX=0.5;exitY=1;exitDx=0;exitDy=0;entryX=0.5;entryY=0;entryDx=0;entryDy=0;" edge="1" parent="1">
          <mxGeometry width="50" height="50" relative="1" as="geometry">
            <mxPoint x="139.75" y="640" as="sourcePoint" />
            <mxPoint x="139.75" y="680" as="targetPoint" />
          </mxGeometry>
        </mxCell>
      </root>
    </mxGraphModel>
  </diagram>
</mxfile>
